<?xml version="1.0" encoding="UTF-8"?>
<!DOCTYPE svg PUBLIC "-//W3C//DTD SVG 1.1//EN" "http://www.w3.org/Graphics/SVG/1.1/DTD/svg11.dtd">
<svg xmlns="http://www.w3.org/2000/svg" version="1.1" width="129px" height="127px" style="shape-rendering:geometricPrecision; text-rendering:geometricPrecision; image-rendering:optimizeQuality; fill-rule:evenodd; clip-rule:evenodd" xmlns:xlink="http://www.w3.org/1999/xlink">
<g><path style="opacity:1" fill="#ab2423" d="M 92.5,12.5 C 70.7575,12.1675 49.7575,12.5008 29.5,13.5C 30.2759,17.0525 31.6092,20.3858 33.5,23.5C 33.5,24.5 33.5,25.5 33.5,26.5C 30.9079,21.6478 28.5746,16.6478 26.5,11.5C 48.673,11.1693 70.673,11.5026 92.5,12.5 Z"/></g>
<g><path style="opacity:1" fill="#aa2720" d="M 94.5,12.5 C 99.0445,12.4591 103.044,13.7925 106.5,16.5C 104.784,16.3713 103.117,16.038 101.5,15.5C 99.1761,14.3443 96.8428,13.3443 94.5,12.5 Z"/></g>
<g><path style="opacity:1" fill="#de2e26" d="M 92.5,12.5 C 93.1667,12.5 93.8333,12.5 94.5,12.5C 96.8428,13.3443 99.1761,14.3443 101.5,15.5C 101.209,16.6491 100.376,17.3158 99,17.5C 97.1595,16.875 95.3261,16.7083 93.5,17C 93.8333,17.3333 94.1667,17.6667 94.5,18C 93.1175,19.2708 92.1175,20.7708 91.5,22.5C 90.71,21.3915 90.21,20.0581 90,18.5C 88.9887,17.6634 87.8221,17.33 86.5,17.5C 87.3848,22.283 85.3848,24.6163 80.5,24.5C 80.6716,23.5084 80.3382,22.8417 79.5,22.5C 73.0539,21.3743 66.5539,20.041 60,18.5C 59.3333,19.1667 58.6667,19.8333 58,20.5C 55.0148,19.0386 52.5148,19.7053 50.5,22.5C 47.2044,20.9575 45.8711,18.6242 46.5,15.5C 47.5,16.1667 48.5,16.8333 49.5,17.5C 50.3333,16.5 51.1667,15.5 52,14.5C 54.5876,15.797 57.0876,16.797 59.5,17.5C 60.2494,15.9884 61.416,14.9884 63,14.5C 69.8624,14.8139 76.6958,14.8139 83.5,14.5C 65.5123,13.5005 47.5123,13.1671 29.5,13.5C 49.7575,12.5008 70.7575,12.1675 92.5,12.5 Z"/></g>
<g><path style="opacity:1" fill="#e12f2a" d="M 56.5,31.5 C 58.9638,31.0623 59.1304,32.0623 57,34.5C 56.3333,33.8333 55.6667,33.1667 55,32.5C 53.4554,34.2088 52.6221,36.2088 52.5,38.5C 52.3422,40.3186 53.0089,41.6519 54.5,42.5C 54.6541,41.0909 54.8208,39.4242 55,37.5C 55.6667,36.1667 56.3333,36.1667 57,37.5C 57.8776,41.5738 57.0442,45.2404 54.5,48.5C 52.5539,50.087 51.0539,49.7536 50,47.5C 49.2195,46.0563 49.3861,44.723 50.5,43.5C 51.3957,44.5063 52.0623,44.5063 52.5,43.5C 50.604,42.5344 48.604,42.2011 46.5,42.5C 46.5,43.8333 46.5,45.1667 46.5,46.5C 44.8007,46.4729 43.4674,45.8062 42.5,44.5C 42.9914,40.311 42.8248,35.9777 42,31.5C 39.415,27.505 37.5816,23.1717 36.5,18.5C 34.6916,18.5086 33.0249,18.0086 31.5,17C 33.9546,15.4597 36.6213,15.1264 39.5,16C 41.4553,18.3333 43.622,20.5 46,22.5C 46.1026,29.054 48.4359,30.054 53,25.5C 54.6458,27.0548 54.9791,28.7215 54,30.5C 54.6708,31.2524 55.5041,31.5858 56.5,31.5 Z"/></g>
<g><path style="opacity:1" fill="#b4221d" d="M 106.5,16.5 C 114.794,23.217 117.627,31.8836 115,42.5C 114.79,44.0581 114.29,45.3915 113.5,46.5C 113.83,39.8002 113.497,33.1335 112.5,26.5C 110.88,22.8935 108.88,19.5602 106.5,16.5 Z"/></g>
<g><path style="opacity:1" fill="#e02f28" d="M 101.5,15.5 C 103.117,16.038 104.784,16.3713 106.5,16.5C 108.88,19.5602 110.88,22.8935 112.5,26.5C 113.497,33.1335 113.83,39.8002 113.5,46.5C 113.34,48.153 112.674,49.4863 111.5,50.5C 109.976,51.1738 108.642,52.1738 107.5,53.5C 106.549,52.6744 105.549,52.5078 104.5,53C 105.747,54.4936 105.747,55.9936 104.5,57.5C 103.549,56.6744 102.549,56.5078 101.5,57C 100.367,59.9465 98.6999,62.4465 96.5,64.5C 95.8333,64.5 95.5,64.8333 95.5,65.5C 92.9711,65.107 90.3044,65.107 87.5,65.5C 87.67,64.1779 87.3366,63.0113 86.5,62C 88.0009,60.7485 89.6675,59.7485 91.5,59C 90.6921,57.2942 89.3588,56.4609 87.5,56.5C 87.2619,51.0272 89.5952,47.3606 94.5,45.5C 95.7308,42.4616 95.5641,39.4616 94,36.5C 92.883,37.9494 92.2163,39.6161 92,41.5C 91.0202,35.8736 89.1868,30.5402 86.5,25.5C 87.2421,24.7132 88.0754,24.0465 89,23.5C 89.7096,24.9733 90.8762,25.6399 92.5,25.5C 92.7373,24.209 92.404,23.209 91.5,22.5C 92.1175,20.7708 93.1175,19.2708 94.5,18C 94.1667,17.6667 93.8333,17.3333 93.5,17C 95.3261,16.7083 97.1595,16.875 99,17.5C 100.376,17.3158 101.209,16.6491 101.5,15.5 Z"/></g>
<g><path style="opacity:1" fill="#e02d24" d="M 29.5,13.5 C 47.5123,13.1671 65.5123,13.5005 83.5,14.5C 76.6958,14.8139 69.8624,14.8139 63,14.5C 61.416,14.9884 60.2494,15.9884 59.5,17.5C 57.0876,16.797 54.5876,15.797 52,14.5C 51.1667,15.5 50.3333,16.5 49.5,17.5C 48.5,16.8333 47.5,16.1667 46.5,15.5C 45.8711,18.6242 47.2044,20.9575 50.5,22.5C 52.5148,19.7053 55.0148,19.0386 58,20.5C 58.6667,19.8333 59.3333,19.1667 60,18.5C 66.5539,20.041 73.0539,21.3743 79.5,22.5C 72.052,21.8921 64.8853,22.5587 58,24.5C 57.6667,24.1667 57.3333,23.8333 57,23.5C 57.4012,26.0613 57.2345,28.7279 56.5,31.5C 55.5041,31.5858 54.6708,31.2524 54,30.5C 54.9791,28.7215 54.6458,27.0548 53,25.5C 48.4359,30.054 46.1026,29.054 46,22.5C 43.622,20.5 41.4553,18.3333 39.5,16C 36.6213,15.1264 33.9546,15.4597 31.5,17C 33.0249,18.0086 34.6916,18.5086 36.5,18.5C 37.5816,23.1717 39.415,27.505 42,31.5C 42.8248,35.9777 42.9914,40.311 42.5,44.5C 41.8826,44.6107 41.3826,44.944 41,45.5C 40.7547,43.3367 39.7547,41.67 38,40.5C 37.2225,36.0179 36.8892,31.6846 37,27.5C 36.5838,25.4497 35.4171,24.1164 33.5,23.5C 31.6092,20.3858 30.2759,17.0525 29.5,13.5 Z"/></g>
<g><path style="opacity:1" fill="#a52822" d="M 59.5,27.5 C 60.1627,29.4726 60.4961,31.6392 60.5,34C 60.6725,37.4774 60.0058,40.644 58.5,43.5C 59.2745,38.2032 59.6079,32.8699 59.5,27.5 Z"/></g>
<g><path style="opacity:1" fill="#b22928" d="M 33.5,26.5 C 34.2216,26.9175 34.7216,27.5842 35,28.5C 35.8151,33.3522 35.6484,38.0189 34.5,42.5C 34.6757,37.1203 34.3424,31.787 33.5,26.5 Z"/></g>
<g><path style="opacity:1" fill="#d72c26" d="M 79.5,22.5 C 80.3382,22.8417 80.6716,23.5084 80.5,24.5C 73.5,24.5 66.5,24.5 59.5,24.5C 59.5,25.5 59.5,26.5 59.5,27.5C 59.6079,32.8699 59.2745,38.2032 58.5,43.5C 56.6917,48.9788 53.3583,53.3121 48.5,56.5C 44.4539,57.9673 40.4539,59.634 36.5,61.5C 33.7607,61.7066 31.4274,62.7066 29.5,64.5C 28.8333,64.1667 28.1667,63.8333 27.5,63.5C 29.0396,62.4679 29.5396,61.1346 29,59.5C 26.2192,60.9471 23.7192,62.7804 21.5,65C 22.8333,65.3333 24.1667,65.6667 25.5,66C 24.6919,66.3076 24.0253,66.8076 23.5,67.5C 24.6405,68.4255 24.6405,69.2588 23.5,70C 25.6355,70.8763 26.9688,72.3763 27.5,74.5C 23.9945,71.9139 20.3278,69.5805 16.5,67.5C 15.0131,66.1964 13.3464,65.0298 11.5,64C 14.9389,62.6267 17.9389,60.7934 20.5,58.5C 26.9698,54.6999 31.6365,49.3665 34.5,42.5C 35.6484,38.0189 35.8151,33.3522 35,28.5C 34.7216,27.5842 34.2216,26.9175 33.5,26.5C 33.5,25.5 33.5,24.5 33.5,23.5C 35.4171,24.1164 36.5838,25.4497 37,27.5C 36.8892,31.6846 37.2225,36.0179 38,40.5C 39.7547,41.67 40.7547,43.3367 41,45.5C 41.3826,44.944 41.8826,44.6107 42.5,44.5C 43.4674,45.8062 44.8007,46.4729 46.5,46.5C 46.5,45.1667 46.5,43.8333 46.5,42.5C 48.604,42.2011 50.604,42.5344 52.5,43.5C 52.0623,44.5063 51.3957,44.5063 50.5,43.5C 49.3861,44.723 49.2195,46.0563 50,47.5C 51.0539,49.7536 52.5539,50.087 54.5,48.5C 57.0442,45.2404 57.8776,41.5738 57,37.5C 56.3333,36.1667 55.6667,36.1667 55,37.5C 54.8208,39.4242 54.6541,41.0909 54.5,42.5C 53.0089,41.6519 52.3422,40.3186 52.5,38.5C 52.6221,36.2088 53.4554,34.2088 55,32.5C 55.6667,33.1667 56.3333,33.8333 57,34.5C 59.1304,32.0623 58.9638,31.0623 56.5,31.5C 57.2345,28.7279 57.4012,26.0613 57,23.5C 57.3333,23.8333 57.6667,24.1667 58,24.5C 64.8853,22.5587 72.052,21.8921 79.5,22.5 Z"/></g>
<g><path style="opacity:1" fill="#050202" d="M 82.5,95.5 C 81.8283,98.3428 80.495,100.843 78.5,103C 73.5111,103.499 68.5111,103.666 63.5,103.5C 64.4126,92.2866 61.9126,81.9533 56,72.5C 52.7697,69.4694 49.2697,66.8028 45.5,64.5C 58.779,56.2077 65.1124,44.2077 64.5,28.5C 84.1008,26.6899 89.6008,34.6899 81,52.5C 75.3668,58.0638 68.8668,62.2304 61.5,65C 67.8809,67.6063 73.7143,71.1063 79,75.5C 83.4965,80.3238 85.1631,85.9904 84,92.5C 83.7679,93.7375 83.2679,94.7375 82.5,95.5 Z"/></g>
<g><path style="opacity:1" fill="#11120b" d="M 60.5,62.5 C 59.7515,60.6675 58.7515,59.0009 57.5,57.5C 63.5889,49.5713 66.9223,40.5713 67.5,30.5C 71.9671,30.1326 76.3004,30.6326 80.5,32C 80.9437,36.0048 81.9437,39.6715 83.5,43C 82.1437,45.3976 80.9771,47.8976 80,50.5C 74.4284,55.8782 67.9284,59.8782 60.5,62.5 Z"/></g>
<g><path style="opacity:1" fill="#c0251a" d="M 111.5,50.5 C 108.46,57.2051 103.46,61.8717 96.5,64.5C 98.6999,62.4465 100.367,59.9465 101.5,57C 102.549,56.5078 103.549,56.6744 104.5,57.5C 105.747,55.9936 105.747,54.4936 104.5,53C 105.549,52.5078 106.549,52.6744 107.5,53.5C 108.642,52.1738 109.976,51.1738 111.5,50.5 Z"/></g>
<g><path style="opacity:1" fill="#ae251d" d="M 48.5,56.5 C 44.397,60.061 39.7303,62.8943 34.5,65C 38.2292,65.8445 41.5626,67.3445 44.5,69.5C 41.0119,69.2946 37.6786,68.4613 34.5,67C 33.0804,64.4264 33.747,62.593 36.5,61.5C 40.4539,59.634 44.4539,57.9673 48.5,56.5 Z"/></g>
<g><path style="opacity:1" fill="#b4241d" d="M 20.5,58.5 C 17.9389,60.7934 14.9389,62.6267 11.5,64C 13.3464,65.0298 15.0131,66.1964 16.5,67.5C 12.2672,66.2515 7.93389,65.4181 3.5,65C 9.1848,62.9375 14.8515,60.7708 20.5,58.5 Z"/></g>
<g><path style="opacity:1" fill="#9b2822" d="M 73.5,63.5 C 74.241,65.3542 75.241,67.0209 76.5,68.5C 74.528,67.549 72.528,66.549 70.5,65.5C 71.3569,64.5748 72.3569,63.9081 73.5,63.5 Z"/></g>
<g><path style="opacity:1" fill="#d62c26" d="M 91.5,22.5 C 92.404,23.209 92.7373,24.209 92.5,25.5C 90.8762,25.6399 89.7096,24.9733 89,23.5C 88.0754,24.0465 87.2421,24.7132 86.5,25.5C 89.1868,30.5402 91.0202,35.8736 92,41.5C 92.2163,39.6161 92.883,37.9494 94,36.5C 95.5641,39.4616 95.7308,42.4616 94.5,45.5C 89.5952,47.3606 87.2619,51.0272 87.5,56.5C 89.3588,56.4609 90.6921,57.2942 91.5,59C 89.6675,59.7485 88.0009,60.7485 86.5,62C 87.3366,63.0113 87.67,64.1779 87.5,65.5C 90.3044,65.107 92.9711,65.107 95.5,65.5C 98.8489,66.1695 101.516,67.8361 103.5,70.5C 101.723,70.2137 100.056,69.5471 98.5,68.5C 96.5952,69.065 94.9285,70.065 93.5,71.5C 92.2798,70.2889 91.1131,70.2889 90,71.5C 89.6121,70.572 88.9454,69.9054 88,69.5C 86.5,70.3333 85.3333,71.5 84.5,73C 85.6198,74.7374 86.6198,76.5708 87.5,78.5C 88.6034,78.9976 89.6034,79.3309 90.5,79.5C 90.0181,85.9258 89.0181,92.2591 87.5,98.5C 88.3569,99.4252 89.3569,100.092 90.5,100.5C 90.8808,102.942 90.2141,103.609 88.5,102.5C 87.7025,102.957 87.3691,103.624 87.5,104.5C 86.7321,103.737 86.2321,102.737 86,101.5C 85.6174,102.056 85.1174,102.389 84.5,102.5C 89.4116,94.2303 89.5782,85.897 85,77.5C 82.6039,74.0015 79.7706,71.0015 76.5,68.5C 75.241,67.0209 74.241,65.3542 73.5,63.5C 87.5271,55.5721 91.6938,44.2387 86,29.5C 84.2703,27.5981 82.437,25.9314 80.5,24.5C 85.3848,24.6163 87.3848,22.283 86.5,17.5C 87.8221,17.33 88.9887,17.6634 90,18.5C 90.21,20.0581 90.71,21.3915 91.5,22.5 Z"/></g>
<g><path style="opacity:1" fill="#e12e27" d="M 36.5,61.5 C 33.747,62.593 33.0804,64.4264 34.5,67C 37.6786,68.4613 41.0119,69.2946 44.5,69.5C 44.5271,71.1993 45.1938,72.5326 46.5,73.5C 44.4599,73.5641 42.1266,73.7308 39.5,74C 40.7059,75.0177 40.3726,75.5177 38.5,75.5C 35.835,74.1116 34.835,75.1116 35.5,78.5C 38.691,78.2378 41.3577,76.9045 43.5,74.5C 43.8333,75 44.1667,75.5 44.5,76C 42.2993,78.6992 40.2993,81.5326 38.5,84.5C 38.8941,88.0364 39.5607,91.703 40.5,95.5C 39.2719,96.3065 38.2719,97.3065 37.5,98.5C 37.6641,95.8127 37.4974,93.146 37,90.5C 36.6174,89.944 36.1174,89.6107 35.5,89.5C 34.8333,89.5 34.5,89.1667 34.5,88.5C 35.7928,86.6365 35.7928,84.6365 34.5,82.5C 33.542,80.3761 32.3754,78.3761 31,76.5C 30.1841,75.1772 29.0174,74.5106 27.5,74.5C 26.9688,72.3763 25.6355,70.8763 23.5,70C 24.6405,69.2588 24.6405,68.4255 23.5,67.5C 24.0253,66.8076 24.6919,66.3076 25.5,66C 24.1667,65.6667 22.8333,65.3333 21.5,65C 23.7192,62.7804 26.2192,60.9471 29,59.5C 29.5396,61.1346 29.0396,62.4679 27.5,63.5C 28.1667,63.8333 28.8333,64.1667 29.5,64.5C 31.4274,62.7066 33.7607,61.7066 36.5,61.5 Z"/></g>
<g><path style="opacity:1" fill="#11110b" d="M 57.5,57.5 C 58.7515,59.0009 59.7515,60.6675 60.5,62.5C 57.894,63.8499 57.894,65.3499 60.5,67C 67.4632,69.6455 73.6299,73.4788 79,78.5C 80.5574,81.172 81.724,84.0053 82.5,87C 82.4056,89.8083 82.4056,92.6416 82.5,95.5C 80.7428,96.292 79.4095,97.6253 78.5,99.5C 76.8767,98.5244 75.5433,99.0244 74.5,101C 71.7728,101.818 69.1062,101.652 66.5,100.5C 66.7206,85.6121 61.054,73.6121 49.5,64.5C 51.5691,61.4275 54.2358,59.0941 57.5,57.5 Z"/></g>
<g><path style="opacity:1" fill="#b5221c" d="M 44.5,69.5 C 49.1045,71.1053 52.4378,74.1053 54.5,78.5C 52.3889,76.0768 49.7223,74.4102 46.5,73.5C 45.1938,72.5326 44.5271,71.1993 44.5,69.5 Z"/></g>
<g><path style="opacity:1" fill="#b3221c" d="M 108.5,75.5 C 113.554,80.3341 115.887,86.3341 115.5,93.5C 113.36,87.6002 111.027,81.6002 108.5,75.5 Z"/></g>
<g><path style="opacity:1" fill="#df2f27" d="M 103.5,70.5 C 105.833,71.5 107.5,73.1667 108.5,75.5C 111.027,81.6002 113.36,87.6002 115.5,93.5C 116.108,96.0621 115.942,98.7288 115,101.5C 114.576,104.025 113.41,106.025 111.5,107.5C 109.616,107.712 108.283,108.712 107.5,110.5C 106.355,109.224 106.355,107.891 107.5,106.5C 106.271,105.719 104.938,105.219 103.5,105C 106.32,104.264 108.32,102.598 109.5,100C 108.601,98.7638 107.434,97.9304 106,97.5C 102.717,99.2831 99.8832,101.616 97.5,104.5C 96.0192,101.707 94.6859,98.8732 93.5,96C 91.2266,96.3166 90.2266,97.8166 90.5,100.5C 89.3569,100.092 88.3569,99.4252 87.5,98.5C 89.0181,92.2591 90.0181,85.9258 90.5,79.5C 89.6034,79.3309 88.6034,78.9976 87.5,78.5C 86.6198,76.5708 85.6198,74.7374 84.5,73C 85.3333,71.5 86.5,70.3333 88,69.5C 88.9454,69.9054 89.6121,70.572 90,71.5C 91.1131,70.2889 92.2798,70.2889 93.5,71.5C 94.9285,70.065 96.5952,69.065 98.5,68.5C 100.056,69.5471 101.723,70.2137 103.5,70.5 Z"/></g>
<g><path style="opacity:1" fill="#e02f2a" d="M 46.5,73.5 C 49.7223,74.4102 52.3889,76.0768 54.5,78.5C 54.4354,81.4715 55.2687,84.1382 57,86.5C 57.498,89.4816 57.6646,92.4816 57.5,95.5C 56.5041,95.5858 55.6708,95.2524 55,94.5C 54.9657,96.1796 54.799,97.6796 54.5,99C 51.854,99.4974 49.1873,99.6641 46.5,99.5C 46.472,97.4176 47.1387,95.5843 48.5,94C 47.9535,93.0754 47.2868,92.2421 46.5,91.5C 44.051,93.7756 42.2177,96.4423 41,99.5C 40.51,98.2068 40.3433,96.8734 40.5,95.5C 39.5607,91.703 38.8941,88.0364 38.5,84.5C 40.2993,81.5326 42.2993,78.6992 44.5,76C 44.1667,75.5 43.8333,75 43.5,74.5C 41.3577,76.9045 38.691,78.2378 35.5,78.5C 34.835,75.1116 35.835,74.1116 38.5,75.5C 40.3726,75.5177 40.7059,75.0177 39.5,74C 42.1266,73.7308 44.4599,73.5641 46.5,73.5 Z"/></g>
<g><path style="opacity:1" fill="#b2241c" d="M 27.5,74.5 C 29.0174,74.5106 30.1841,75.1772 31,76.5C 32.3754,78.3761 33.542,80.3761 34.5,82.5C 35.7928,84.6365 35.7928,86.6365 34.5,88.5C 33.2243,83.2819 30.8909,78.6152 27.5,74.5 Z"/></g>
<g><path style="opacity:1" fill="#b5251d" d="M 35.5,89.5 C 36.1174,89.6107 36.6174,89.944 37,90.5C 37.4974,93.146 37.6641,95.8127 37.5,98.5C 36.4909,101.049 35.6575,103.715 35,106.5C 34.2917,107.381 33.4584,108.047 32.5,108.5C 34.993,102.429 35.993,96.0954 35.5,89.5 Z"/></g>
<g><path style="opacity:1" fill="#e02f28" d="M 57.5,95.5 C 57.5,99.8333 57.5,104.167 57.5,108.5C 65.3516,108.825 73.0182,108.492 80.5,107.5C 81.604,105.611 82.9373,103.945 84.5,102.5C 85.1174,102.389 85.6174,102.056 86,101.5C 86.2321,102.737 86.7321,103.737 87.5,104.5C 86.8968,106.679 86.2301,108.846 85.5,111C 87.8333,112 90.1667,113 92.5,114C 93.5981,114.77 93.5981,115.603 92.5,116.5C 71.8226,116.833 51.1559,116.5 30.5,115.5C 31.9459,113.382 32.6126,111.049 32.5,108.5C 33.4584,108.047 34.2917,107.381 35,106.5C 35.6575,103.715 36.4909,101.049 37.5,98.5C 38.2719,97.3065 39.2719,96.3065 40.5,95.5C 40.3433,96.8734 40.51,98.2068 41,99.5C 42.2177,96.4423 44.051,93.7756 46.5,91.5C 47.2868,92.2421 47.9535,93.0754 48.5,94C 47.1387,95.5843 46.472,97.4176 46.5,99.5C 49.1873,99.6641 51.854,99.4974 54.5,99C 54.799,97.6796 54.9657,96.1796 55,94.5C 55.6708,95.2524 56.5041,95.5858 57.5,95.5 Z"/></g>
<g><path style="opacity:1" fill="#dd2f28" d="M 111.5,107.5 C 109.362,112.299 105.695,115.299 100.5,116.5C 97.8333,116.5 95.1667,116.5 92.5,116.5C 93.5981,115.603 93.5981,114.77 92.5,114C 90.1667,113 87.8333,112 85.5,111C 86.2301,108.846 86.8968,106.679 87.5,104.5C 87.3691,103.624 87.7025,102.957 88.5,102.5C 90.2141,103.609 90.8808,102.942 90.5,100.5C 90.2266,97.8166 91.2266,96.3166 93.5,96C 94.6859,98.8732 96.0192,101.707 97.5,104.5C 99.8832,101.616 102.717,99.2831 106,97.5C 107.434,97.9304 108.601,98.7638 109.5,100C 108.32,102.598 106.32,104.264 103.5,105C 104.938,105.219 106.271,105.719 107.5,106.5C 106.355,107.891 106.355,109.224 107.5,110.5C 108.283,108.712 109.616,107.712 111.5,107.5 Z"/></g>
<g><path style="opacity:1" fill="#b32921" d="M 54.5,78.5 C 57.0594,82.0002 58.5594,86.0002 59,90.5C 59.4994,96.1569 59.6661,101.824 59.5,107.5C 66.5,107.5 73.5,107.5 80.5,107.5C 73.0182,108.492 65.3516,108.825 57.5,108.5C 57.5,104.167 57.5,99.8333 57.5,95.5C 57.6646,92.4816 57.498,89.4816 57,86.5C 55.2687,84.1382 54.4354,81.4715 54.5,78.5 Z"/></g>
<g><path style="opacity:1" fill="#ba1e17" d="M 32.5,108.5 C 32.6126,111.049 31.9459,113.382 30.5,115.5C 51.1559,116.5 71.8226,116.833 92.5,116.5C 95.1667,116.5 97.8333,116.5 100.5,116.5C 97.7974,117.963 94.7974,118.796 91.5,119C 69.9905,119.471 48.6572,119.638 27.5,119.5C 27.1667,119.167 26.8333,118.833 26.5,118.5C 28.5392,115.071 30.5392,111.737 32.5,108.5 Z"/></g>
</svg>
